<svg width="512" height="512" viewBox="0 0 512 512" fill="none" xmlns="http://www.w3.org/2000/svg">
<path d="M256.004 40.928C137.223 40.928 40.934 137.222 40.934 256.002C40.934 374.778 137.223 471.07 256.004 471.07C374.777 471.07 471.07 374.778 471.07 256.002C471.07 137.222 374.777 40.928 256.004 40.928Z" fill="#1C2541"/>
<path d="M256.004 1C115.394 1 1 115.394 1 256.002C1 396.61 115.394 511 256.004 511C396.611 511 511 396.61 511 256.002C511 115.394 396.611 1 256.004 1ZM256.004 502.832C119.899 502.832 9.173 392.104 9.173 256.002C9.173 119.897 119.899 9.17 256.004 9.17C392.106 9.17 502.828 119.898 502.828 256.002C502.828 392.104 392.105 502.832 256.004 502.832Z" fill="#1C2541"/>
<path d="M406 256.004C406 338.845 338.842 405.997 255.993 405.997C173.158 405.997 106 338.845 106 256.004C106 173.155 173.158 106.003 255.993 106.003C338.842 106.003 406 173.155 406 256.004Z" fill="url(#paint0_linear)"/>
<path d="M368.592 256.004C368.592 318.184 318.182 368.597 255.993 368.597C193.812 368.597 143.401 318.184 143.401 256.004C143.401 193.816 193.812 143.409 255.993 143.409C318.182 143.409 368.592 193.816 368.592 256.004Z" fill="url(#paint1_linear)"/>
<path d="M181.907 103.986C169.883 100.975 160.5 91.589 157.488 79.568L156.97 77.518L156.455 79.568C153.444 91.589 144.057 100.975 132.031 103.986L129.985 104.503L132.031 105.017C144.057 108.028 153.444 117.415 156.455 129.437L156.97 131.488L157.488 129.437C160.5 117.416 169.883 108.028 181.907 105.017L183.959 104.503L181.907 103.986Z" fill="#48ACF0"/>
<path d="M400.253 385.561C389.567 382.883 381.227 374.54 378.549 363.858L378.09 362.036L377.633 363.858C374.955 374.54 366.613 382.883 355.924 385.561L354.106 386.018L355.924 386.475C366.614 389.153 374.955 397.495 377.633 408.182L378.09 410.004L378.549 408.182C381.227 397.494 389.567 389.153 400.253 386.475L402.078 386.018L400.253 385.561Z" fill="#0CD15B"/>
<path d="M349.161 423.116C342.903 421.548 338.02 416.663 336.453 410.409L336.185 409.343L335.916 410.409C334.349 416.663 329.464 421.548 323.206 423.116L322.141 423.384L323.206 423.652C329.464 425.218 334.349 430.105 335.916 436.363L336.185 437.427L336.453 436.363C338.02 430.105 342.903 425.218 349.161 423.652L350.228 423.384L349.161 423.116Z" fill="#1C2541"/>
<path d="M128.919 152.721C122.661 151.153 117.778 146.268 116.211 140.014L115.942 138.948L115.673 140.014C114.106 146.268 109.221 151.153 102.963 152.721L101.898 152.989L102.963 153.257C109.221 154.823 114.106 159.71 115.673 165.968L115.942 167.032L116.211 165.968C117.778 159.71 122.661 154.823 128.919 153.257L129.986 152.989L128.919 152.721Z" fill="#0CD15B"/>
<path d="M256.001 106.003C173.155 106.003 106 173.156 106 256C106 338.847 173.155 406.003 256.001 406.003C338.843 406.003 406.001 338.847 406.001 256C406.001 173.156 338.843 106.003 256.001 106.003Z" fill="#0B132B"/>
<path d="M256.001 143.41C193.818 143.41 143.406 193.819 143.406 256C143.406 318.184 193.818 368.593 256.001 368.593C318.185 368.593 368.598 318.184 368.598 256C368.598 193.819 318.185 143.41 256.001 143.41Z" fill="#3A506B"/>
<path d="M255.997 205.966C252.364 205.966 249.419 208.913 249.419 212.55C249.419 216.183 252.364 219.129 255.997 219.129C259.634 219.129 262.582 216.183 262.582 212.55C262.582 208.913 259.634 205.966 255.997 205.966Z" fill="white"/>
<path d="M228.195 201.854C225.241 201.854 222.845 204.247 222.845 207.198C222.845 210.153 225.24 212.551 228.195 212.551C231.147 212.551 233.542 210.153 233.542 207.198C233.542 204.246 231.148 201.854 228.195 201.854Z" fill="white"/>
<path d="M217.878 186.23C215.839 186.23 214.186 187.888 214.186 189.928C214.186 191.965 215.839 193.616 217.878 193.616C219.916 193.616 221.567 191.966 221.567 189.928C221.567 187.888 219.916 186.23 217.878 186.23Z" fill="white"/>
<path d="M202.508 251.047C199.949 249.574 196.68 250.448 195.203 253.006C193.727 255.563 194.603 258.834 197.161 260.312C199.719 261.79 202.989 260.912 204.465 258.354C205.94 255.797 205.064 252.525 202.508 251.047Z" fill="white"/>
<path d="M181.559 252.779C179.796 251.761 177.539 252.365 176.52 254.134C175.5 255.899 176.103 258.156 177.87 259.174C179.634 260.193 181.895 259.589 182.914 257.823C183.932 256.059 183.328 253.802 181.559 252.779Z" fill="white"/>
<path d="M232.27 301.806C230.794 299.248 227.524 298.375 224.966 299.848C222.408 301.327 221.533 304.598 223.009 307.155C224.488 309.712 227.755 310.587 230.316 309.113C232.873 307.635 233.748 304.363 232.27 301.806Z" fill="white"/>
<path d="M221.035 320.207C220.016 318.443 217.759 317.839 215.992 318.857C214.225 319.875 213.622 322.133 214.641 323.902C215.661 325.663 217.917 326.27 219.684 325.253C221.448 324.231 222.055 321.973 221.035 320.207Z" fill="white"/>
<path d="M283.806 299.454C280.851 299.454 278.459 301.848 278.459 304.799C278.459 307.754 280.851 310.147 283.806 310.147C286.757 310.147 289.153 307.754 289.153 304.799C289.152 301.848 286.757 299.454 283.806 299.454Z" fill="white"/>
<path d="M294.123 318.385C292.085 318.385 290.431 320.035 290.431 322.075C290.431 324.112 292.085 325.765 294.123 325.765C296.162 325.765 297.813 324.112 297.813 322.075C297.813 320.035 296.162 318.385 294.123 318.385Z" fill="white"/>
<path d="M314.837 251.691C312.279 250.21 309.009 251.087 307.533 253.646C306.057 256.207 306.933 259.474 309.491 260.952C312.048 262.426 315.318 261.551 316.794 258.994C318.273 256.438 317.395 253.166 314.837 251.691Z" fill="white"/>
<path d="M334.128 252.824C332.362 251.806 330.105 252.41 329.085 254.176C328.065 255.945 328.673 258.202 330.435 259.22C332.202 260.239 334.46 259.635 335.479 257.869C336.502 256.101 335.895 253.843 334.128 252.824Z" fill="white"/>
<path d="M288.989 204.85C287.513 202.289 284.243 201.414 281.685 202.892C279.127 204.366 278.252 207.637 279.728 210.194C281.204 212.752 284.474 213.626 287.032 212.152C289.59 210.674 290.465 207.406 288.989 204.85Z" fill="white"/>
<path d="M297.356 188.102C296.336 186.337 294.079 185.73 292.316 186.751C290.549 187.769 289.946 190.026 290.962 191.793C291.981 193.561 294.238 194.165 296.005 193.143C297.772 192.125 298.375 189.866 297.356 188.102Z" fill="white"/>
<path d="M221.658 228.57C218.51 226.756 214.485 227.836 212.669 230.984C210.849 234.132 211.931 238.154 215.076 239.972C218.224 241.79 222.249 240.711 224.068 237.563C225.885 234.416 224.807 230.393 221.658 228.57Z" fill="white"/>
<path d="M198.154 217.315C195.966 216.05 193.165 216.802 191.898 218.994C190.635 221.182 191.385 223.981 193.574 225.25C195.766 226.51 198.567 225.763 199.831 223.57C201.098 221.379 200.347 218.58 198.154 217.315Z" fill="white"/>
<path d="M224.068 274.435C222.249 271.287 218.224 270.208 215.076 272.026C211.93 273.844 210.848 277.867 212.669 281.019C214.485 284.167 218.51 285.244 221.658 283.425C224.807 281.611 225.885 277.584 224.068 274.435Z" fill="white"/>
<path d="M199.831 288.429C198.567 286.241 195.767 285.49 193.574 286.754C191.385 288.018 190.635 290.818 191.898 293.01C193.165 295.201 195.966 295.953 198.154 294.684C200.347 293.42 201.098 290.621 199.831 288.429Z" fill="white"/>
<path d="M255.997 292.87C252.364 292.87 249.419 295.821 249.419 299.454C249.419 303.091 252.364 306.033 255.997 306.033C259.634 306.033 262.582 303.091 262.582 299.454C262.582 295.821 259.634 292.87 255.997 292.87Z" fill="white"/>
<path d="M255.997 320.855C253.472 320.855 251.42 322.909 251.42 325.437C251.42 327.969 253.472 330.014 255.997 330.014C258.53 330.014 260.578 327.969 260.578 325.437C260.578 322.909 258.53 320.855 255.997 320.855Z" fill="white"/>
<path d="M255.997 181.985C253.472 181.985 251.42 184.034 251.42 186.561C251.42 189.09 253.472 191.144 255.997 191.144C258.53 191.144 260.578 189.09 260.578 186.561C260.578 184.034 258.53 181.985 255.997 181.985Z" fill="white"/>
<path d="M296.922 272.026C293.774 270.208 289.746 271.287 287.933 274.435C286.114 277.584 287.192 281.611 290.34 283.425C293.489 285.243 297.513 284.167 299.332 281.019C301.148 277.867 300.07 273.845 296.922 272.026Z" fill="white"/>
<path d="M318.424 286.754C316.236 285.49 313.434 286.241 312.167 288.429C310.9 290.621 311.651 293.42 313.843 294.684C316.035 295.954 318.836 295.202 320.1 293.01C321.362 290.818 320.612 288.018 318.424 286.754Z" fill="white"/>
<path d="M299.332 230.984C297.513 227.836 293.489 226.755 290.34 228.57C287.192 230.392 286.113 234.416 287.933 237.563C289.747 240.711 293.774 241.79 296.922 239.972C300.07 238.154 301.148 234.133 299.332 230.984Z" fill="white"/>
<path d="M320.1 218.994C318.836 216.803 316.036 216.051 313.843 217.315C311.652 218.58 310.901 221.379 312.167 223.57C313.434 225.762 316.235 226.509 318.424 225.25C320.612 223.981 321.362 221.182 320.1 218.994Z" fill="white"/>
<path d="M252.705 229.621C249.851 224.68 243.528 222.984 238.585 225.841C233.643 228.694 231.947 235.015 234.803 239.961C237.657 244.902 243.979 246.598 248.922 243.741C253.865 240.889 255.56 234.567 252.705 229.621Z" fill="white"/>
<path d="M231.51 245.662C225.801 245.662 221.173 250.293 221.173 255.998C221.173 261.707 225.801 266.338 231.51 266.338C237.219 266.338 241.847 261.707 241.847 255.998C241.847 250.293 237.219 245.662 231.51 245.662Z" fill="white"/>
<path d="M248.922 268.258C243.979 265.406 237.656 267.097 234.803 272.043C231.948 276.984 233.643 283.307 238.585 286.163C243.528 289.016 249.851 287.32 252.705 282.379C255.56 277.436 253.865 271.111 248.922 268.258Z" fill="white"/>
<path d="M277.195 272.043C274.344 267.097 268.022 265.406 263.076 268.258C258.133 271.111 256.437 277.437 259.293 282.379C262.147 287.32 268.47 289.016 273.413 286.163C278.359 283.307 280.05 276.984 277.195 272.043Z" fill="white"/>
<path d="M280.491 245.662C274.781 245.662 270.154 250.293 270.154 255.998C270.154 261.707 274.781 266.338 280.491 266.338C286.2 266.338 290.828 261.707 290.828 255.998C290.828 250.293 286.2 245.662 280.491 245.662Z" fill="white"/>
<path d="M273.413 225.841C268.47 222.985 262.147 224.68 259.293 229.621C256.438 234.567 258.133 240.889 263.076 243.741C268.022 246.598 274.344 244.902 277.195 239.961C280.05 235.015 278.359 228.693 273.413 225.841Z" fill="white"/>
<defs>
<linearGradient id="paint0_linear" x1="256" y1="419.145" x2="256" y2="119.151" gradientUnits="userSpaceOnUse">
<stop offset="0.0108" stop-color="#FFB22A"/>
<stop offset="0.9462" stop-color="#FF9D14"/>
</linearGradient>
<linearGradient id="paint1_linear" x1="255.997" y1="143.409" x2="255.997" y2="368.597" gradientUnits="userSpaceOnUse">
<stop stop-color="white"/>
<stop offset="1" stop-color="#FFEDA7"/>
</linearGradient>
</defs>
</svg>
