<svg width="365" height="445" viewBox="0 0 365 445" fill="none" xmlns="http://www.w3.org/2000/svg">
<g opacity="0.1">
<path d="M96.2544 146.823L157.873 213.465L281.926 213.465C286.195 220.383 293.825 225.008 302.548 225.008C315.931 225.008 326.771 214.163 326.771 200.794C326.771 187.399 315.931 176.554 302.548 176.554C293.816 176.554 286.182 181.187 281.918 188.123L168.961 188.123L107.342 121.481L-32.9954 121.481L-32.9955 146.823L96.2544 146.823V146.823Z" fill="white"/>
<path d="M126.103 392.422L150.282 343.699L190.537 343.699C194.801 350.614 202.427 355.233 211.146 355.233C224.524 355.233 235.369 344.398 235.369 331.028C235.369 317.633 224.524 306.789 211.146 306.789C202.418 306.789 194.788 311.421 190.524 318.358L134.57 318.358L110.391 367.08L-32.9998 367.08L-32.9998 392.422L126.103 392.422Z" fill="white"/>
<path d="M140.253 82.0023L209.923 36.9192L320.16 36.9192C324.428 43.8337 332.054 48.4622 340.778 48.4622C354.16 48.4622 365 37.609 365 24.2485C365 10.8446 354.16 5.59706e-05 340.778 5.42576e-05C332.041 5.31393e-05 324.411 4.63708 320.147 11.5776L202.449 11.5776L132.779 56.6606L-32.9955 56.6606L-32.9955 82.0022L140.253 82.0023Z" fill="white"/>
<path d="M122.394 274.372C126.658 281.282 134.28 285.906 143.003 285.906C156.381 285.906 167.225 275.062 167.225 261.701C167.225 248.297 156.381 237.479 143.003 237.479C134.271 237.479 126.645 242.103 122.381 249.031L-33 249.03L-33 274.372L122.394 274.372Z" fill="white"/>
</g>
</svg>
