<svg width="512" height="512" viewBox="0 0 512 512" fill="none" xmlns="http://www.w3.org/2000/svg">
<path d="M255.999 40.929C137.221 40.929 40.929 137.222 40.929 256.003C40.929 374.776 137.221 471.07 255.999 471.07C374.777 471.07 471.07 374.776 471.07 256.003C471.07 137.222 374.777 40.929 255.999 40.929Z" fill="#1C2541"/>
<path d="M255.999 1C115.392 1 1 115.393 1 256.003C1 396.606 115.392 511 255.999 511C396.607 511 511 396.606 511 256.003C511 115.393 396.607 1 255.999 1ZM255.999 502.828C119.897 502.828 9.169 392.1 9.169 256.003C9.169 119.898 119.897 9.169 255.999 9.169C392.101 9.169 502.831 119.898 502.831 256.003C502.831 392.101 392.102 502.828 255.999 502.828Z" fill="#1C2541"/>
<path d="M442.964 304.054C431.381 301.153 422.339 292.107 419.437 280.528L418.941 278.549L418.445 280.528C415.543 292.107 406.502 301.153 394.918 304.054L392.941 304.55L394.918 305.043C406.502 307.946 415.543 316.99 418.445 328.572L418.941 330.549L419.437 328.572C422.339 316.99 431.381 307.946 442.964 305.043L444.944 304.55L442.964 304.054Z" fill="#0CD15B"/>
<path d="M211.379 113.444C199.369 110.435 189.993 101.055 186.981 89.046L186.469 86.996L185.953 89.046C182.943 101.056 173.564 110.436 161.555 113.444L159.505 113.965L161.555 114.482C173.565 117.486 182.944 126.866 185.953 138.872L186.469 140.925L186.981 138.872C189.994 126.866 199.37 117.486 211.379 114.482L213.43 113.965L211.379 113.444Z" fill="#0CD15B"/>
<path d="M197.84 388.338C190.08 386.394 184.026 380.335 182.075 372.576L181.746 371.253L181.415 372.576C179.475 380.335 173.412 386.393 165.65 388.338L164.332 388.671L165.65 389.005C173.412 390.946 179.474 397.003 181.415 404.764L181.746 406.087L182.075 404.764C184.025 397.003 190.08 390.947 197.84 389.005L199.164 388.671L197.84 388.338Z" fill="#0CD15B"/>
<path d="M256 136.376C266.77 136.376 275.5 127.646 275.5 116.876C275.5 106.106 266.77 97.376 256 97.376C245.23 97.376 236.5 106.106 236.5 116.876C236.5 127.646 245.23 136.376 256 136.376Z" fill="#48ACF0"/>
<path d="M256 410.253C266.77 410.253 275.5 401.523 275.5 390.753C275.5 379.983 266.77 371.253 256 371.253C245.23 371.253 236.5 379.983 236.5 390.753C236.5 401.523 245.23 410.253 256 410.253Z" fill="#48ACF0"/>
<path d="M119.061 273.314C129.831 273.314 138.561 264.584 138.561 253.814C138.561 243.044 129.831 234.314 119.061 234.314C108.291 234.314 99.561 243.044 99.561 253.814C99.561 264.584 108.291 273.314 119.061 273.314Z" fill="#48ACF0"/>
<path d="M256 136.376C254.269 136.376 252.599 136.128 251 135.705V190.984H261V135.705C259.401 136.128 257.731 136.376 256 136.376Z" fill="#3A506B"/>
<path d="M170.238 172.452C168.721 175.54 166.449 178.13 163.682 180.003L187.957 201.154C189.1 197.892 191.319 195.143 194.197 193.33L170.238 172.452Z" fill="#3A506B"/>
<path d="M341.762 172.452L317.803 193.328C320.681 195.144 322.901 197.892 324.043 201.154L348.318 180.003C345.551 178.131 343.279 175.54 341.762 172.452Z" fill="#3A506B"/>
<path d="M137.889 248.814C138.312 250.413 138.56 252.082 138.56 253.814C138.56 255.545 138.312 257.215 137.889 258.814H187.091V248.814H137.889Z" fill="#3A506B"/>
<path d="M324.043 306.474C322.9 309.738 320.682 312.486 317.805 314.301L341.762 335.176C343.28 332.088 345.551 329.498 348.319 327.626L324.043 306.474Z" fill="#3A506B"/>
<path d="M374.111 248.814H324.909V258.814H374.111C373.687 257.215 373.439 255.545 373.439 253.814C373.44 252.083 373.688 250.413 374.111 248.814Z" fill="#3A506B"/>
<path d="M187.957 306.474L163.682 327.626C166.45 329.498 168.721 332.088 170.239 335.176L194.197 314.3C191.319 312.485 189.1 309.736 187.957 306.474Z" fill="#3A506B"/>
<path d="M251 316.647V371.924C252.599 371.501 254.269 371.253 256 371.253C257.731 371.253 259.401 371.501 261 371.924V316.647H251Z" fill="#3A506B"/>
<path d="M392.94 273.314C403.71 273.314 412.44 264.584 412.44 253.814C412.44 243.044 403.71 234.314 392.94 234.314C382.17 234.314 373.44 243.044 373.44 253.814C373.44 264.584 382.17 273.314 392.94 273.314Z" fill="#48ACF0"/>
<path d="M362.986 324.639C352.416 322.573 342.173 329.463 340.105 340.032C338.039 350.601 344.929 360.846 355.5 362.912C366.068 364.979 376.314 358.089 378.381 347.519C380.447 336.949 373.557 326.707 362.986 324.639Z" fill="#F5F5F5"/>
<path d="M156.5 144.716C145.932 142.647 135.686 149.54 133.619 160.11C131.553 170.68 138.443 180.923 149.014 182.99C159.584 185.058 169.827 178.167 171.894 167.597C173.961 157.025 167.07 146.783 156.5 144.716Z" fill="#F5F5F5"/>
<path d="M171.895 340.032C169.827 329.463 159.584 322.572 149.014 324.639C138.444 326.707 131.553 336.949 133.619 347.52C135.686 358.089 145.932 364.98 156.5 362.913C167.07 360.846 173.961 350.602 171.895 340.032Z" fill="#F5F5F5"/>
<path d="M378.381 160.109C376.314 149.54 366.068 142.646 355.5 144.715C344.93 146.782 338.039 157.025 340.106 167.596C342.173 178.165 352.416 185.057 362.986 182.989C373.557 180.922 380.447 170.68 378.381 160.109Z" fill="#F5F5F5"/>
<path d="M309.722 190.984H202.282C193.891 190.984 187.091 197.784 187.091 206.168V301.455C187.091 309.845 193.892 316.645 202.282 316.645H309.722C318.11 316.645 324.91 309.844 324.91 301.455V206.168C324.909 197.784 318.109 190.984 309.722 190.984Z" fill="#3A506B"/>
<path d="M270.277 199.516C267.775 199.516 265.748 201.544 265.748 204.045C265.748 206.546 267.775 208.573 270.277 208.573C272.778 208.573 274.806 206.546 274.806 204.045C274.807 201.544 272.778 199.516 270.277 199.516Z" fill="white"/>
<path d="M288.662 199.516C286.159 199.516 284.132 201.544 284.132 204.045C284.132 206.546 286.159 208.573 288.662 208.573C291.163 208.573 293.191 206.546 293.191 204.045C293.191 201.544 291.163 199.516 288.662 199.516Z" fill="white"/>
<path d="M307.046 199.516C304.544 199.516 302.517 201.544 302.517 204.045C302.517 206.546 304.544 208.573 307.046 208.573C309.549 208.573 311.575 206.546 311.575 204.045C311.575 201.544 309.549 199.516 307.046 199.516Z" fill="white"/>
<path d="M187.091 217.944V301.456C187.091 309.846 193.892 316.646 202.282 316.646H309.722C318.11 316.646 324.91 309.845 324.91 301.456V217.944H187.091Z" fill="#0B132B"/>
<path d="M248.576 242.292C248.576 241.264 249.415 240.302 251.093 239.408C252.77 238.469 254.978 238 257.715 238C259.834 238 261.203 238.447 261.821 239.341C262.263 239.967 262.483 240.548 262.483 241.085V243.096C267.472 243.633 270.938 244.572 272.881 245.913C273.675 246.449 274.073 246.964 274.073 247.455C274.073 249.78 273.521 252.284 272.417 254.966C271.358 257.648 270.32 258.989 269.305 258.989C269.128 258.989 268.554 258.788 267.583 258.386C264.669 257.089 262.241 256.441 260.298 256.441C258.4 256.441 257.097 256.62 256.391 256.978C255.728 257.335 255.397 257.894 255.397 258.654C255.397 259.369 255.883 259.928 256.854 260.331C257.826 260.733 259.018 261.091 260.43 261.404C261.887 261.672 263.455 262.141 265.132 262.812C266.854 263.482 268.444 264.287 269.901 265.226C271.358 266.165 272.572 267.573 273.543 269.451C274.514 271.284 275 273.161 275 275.084C275 277.006 274.823 278.593 274.47 279.845C274.117 281.096 273.499 282.393 272.616 283.734C271.777 285.075 270.475 286.282 268.709 287.355C266.987 288.384 264.912 289.144 262.483 289.635V290.708C262.483 291.736 261.645 292.698 259.967 293.592C258.289 294.531 256.082 295 253.344 295C251.225 295 249.857 294.553 249.238 293.659C248.797 293.033 248.576 292.452 248.576 291.915V289.904C245.706 289.635 243.212 289.211 241.093 288.629C237.031 287.512 235 286.305 235 285.008C235 282.505 235.353 279.912 236.06 277.229C236.766 274.502 237.605 273.139 238.576 273.139C238.753 273.139 240.585 273.742 244.073 274.949C247.561 276.156 250.188 276.76 251.954 276.76C253.72 276.76 254.868 276.581 255.397 276.224C255.927 275.821 256.192 275.262 256.192 274.547C256.192 273.832 255.706 273.228 254.735 272.736C253.764 272.2 252.55 271.775 251.093 271.462C249.636 271.149 248.046 270.658 246.325 269.987C244.647 269.316 243.079 268.534 241.623 267.64C240.166 266.746 238.951 265.427 237.98 263.684C237.009 261.94 236.523 259.906 236.523 257.581C236.523 249.355 240.541 244.549 248.576 243.164V242.292Z" fill="#0CD15B"/>
</svg>
