<svg width="512" height="512" viewBox="0 0 512 512" fill="none" xmlns="http://www.w3.org/2000/svg">
<path d="M255.999 40.929C137.221 40.929 40.929 137.222 40.929 256.003C40.929 374.776 137.221 471.07 255.999 471.07C374.777 471.07 471.07 374.776 471.07 256.003C471.07 137.222 374.777 40.929 255.999 40.929Z" fill="#1C2541"/>
<path d="M255.999 1C115.392 1 1 115.393 1 256.003C1 396.606 115.392 511 255.999 511C396.607 511 511 396.606 511 256.003C511 115.393 396.607 1 255.999 1ZM255.999 502.828C119.897 502.828 9.169 392.1 9.169 256.003C9.169 119.898 119.897 9.169 255.999 9.169C392.101 9.169 502.831 119.898 502.831 256.003C502.831 392.101 392.102 502.828 255.999 502.828Z" fill="#1C2541"/>
<path d="M442.964 304.054C431.381 301.153 422.339 292.107 419.437 280.528L418.941 278.549L418.445 280.528C415.543 292.107 406.502 301.153 394.918 304.054L392.941 304.55L394.918 305.043C406.502 307.946 415.543 316.99 418.445 328.572L418.941 330.549L419.437 328.572C422.339 316.99 431.381 307.946 442.964 305.043L444.944 304.55L442.964 304.054Z" fill="#0CD15B"/>
<path d="M211.379 113.444C199.369 110.435 189.993 101.055 186.981 89.046L186.469 86.996L185.953 89.046C182.943 101.056 173.564 110.436 161.555 113.444L159.505 113.965L161.555 114.482C173.565 117.486 182.944 126.866 185.953 138.872L186.469 140.925L186.981 138.872C189.994 126.866 199.37 117.486 211.379 114.482L213.43 113.965L211.379 113.444Z" fill="#0CD15B"/>
<path d="M197.84 388.338C190.08 386.394 184.026 380.335 182.075 372.576L181.746 371.253L181.415 372.576C179.475 380.335 173.412 386.393 165.65 388.338L164.332 388.671L165.65 389.005C173.412 390.946 179.474 397.003 181.415 404.764L181.746 406.087L182.075 404.764C184.025 397.003 190.08 390.947 197.84 389.005L199.164 388.671L197.84 388.338Z" fill="#0CD15B"/>
<path d="M256 136.376C266.77 136.376 275.5 127.646 275.5 116.876C275.5 106.106 266.77 97.376 256 97.376C245.23 97.376 236.5 106.106 236.5 116.876C236.5 127.646 245.23 136.376 256 136.376Z" fill="#48ACF0"/>
<path d="M256 410.253C266.77 410.253 275.5 401.523 275.5 390.753C275.5 379.983 266.77 371.253 256 371.253C245.23 371.253 236.5 379.983 236.5 390.753C236.5 401.523 245.23 410.253 256 410.253Z" fill="#48ACF0"/>
<path d="M119.061 273.314C129.831 273.314 138.561 264.584 138.561 253.814C138.561 243.044 129.831 234.314 119.061 234.314C108.291 234.314 99.561 243.044 99.561 253.814C99.561 264.584 108.291 273.314 119.061 273.314Z" fill="#48ACF0"/>
<path d="M256 136.376C254.269 136.376 252.599 136.128 251 135.705V190.984H261V135.705C259.401 136.128 257.731 136.376 256 136.376Z" fill="#3A506B"/>
<path d="M170.238 172.452C168.721 175.54 166.449 178.13 163.682 180.003L187.957 201.154C189.1 197.892 191.319 195.143 194.197 193.33L170.238 172.452Z" fill="#3A506B"/>
<path d="M341.762 172.452L317.803 193.328C320.681 195.144 322.901 197.892 324.043 201.154L348.318 180.003C345.551 178.131 343.279 175.54 341.762 172.452Z" fill="#3A506B"/>
<path d="M137.889 248.814C138.312 250.413 138.56 252.082 138.56 253.814C138.56 255.545 138.312 257.215 137.889 258.814H187.091V248.814H137.889V248.814Z" fill="#3A506B"/>
<path d="M324.043 306.474C322.9 309.738 320.682 312.486 317.805 314.301L341.762 335.176C343.28 332.088 345.551 329.498 348.319 327.626L324.043 306.474Z" fill="#3A506B"/>
<path d="M374.111 248.814H324.909V258.814H374.111C373.687 257.215 373.439 255.545 373.439 253.814C373.44 252.083 373.688 250.413 374.111 248.814Z" fill="#3A506B"/>
<path d="M187.957 306.474L163.682 327.626C166.45 329.498 168.721 332.088 170.239 335.176L194.197 314.3C191.319 312.485 189.1 309.736 187.957 306.474Z" fill="#3A506B"/>
<path d="M251 316.647V371.924C252.599 371.501 254.269 371.253 256 371.253C257.731 371.253 259.401 371.501 261 371.924V316.647H251Z" fill="#3A506B"/>
<path d="M392.94 273.314C403.71 273.314 412.44 264.584 412.44 253.814C412.44 243.044 403.71 234.314 392.94 234.314C382.17 234.314 373.44 243.044 373.44 253.814C373.44 264.584 382.17 273.314 392.94 273.314Z" fill="#48ACF0"/>
<path d="M362.986 324.639C352.416 322.573 342.173 329.463 340.105 340.032C338.039 350.601 344.929 360.846 355.5 362.912C366.068 364.979 376.314 358.089 378.381 347.519C380.447 336.949 373.557 326.707 362.986 324.639Z" fill="#F5F5F5"/>
<path d="M156.5 144.716C145.932 142.647 135.686 149.54 133.619 160.11C131.553 170.68 138.443 180.923 149.014 182.99C159.584 185.058 169.827 178.167 171.894 167.597C173.961 157.025 167.07 146.783 156.5 144.716Z" fill="#F5F5F5"/>
<path d="M171.895 340.032C169.827 329.463 159.584 322.572 149.014 324.639C138.444 326.707 131.553 336.949 133.619 347.52C135.686 358.089 145.932 364.98 156.5 362.913C167.07 360.846 173.961 350.602 171.895 340.032Z" fill="#F5F5F5"/>
<path d="M378.381 160.109C376.314 149.54 366.068 142.646 355.5 144.715C344.93 146.782 338.039 157.025 340.106 167.596C342.173 178.165 352.416 185.057 362.986 182.989C373.557 180.922 380.447 170.68 378.381 160.109Z" fill="#F5F5F5"/>
<path d="M309.722 190.984H202.282C193.891 190.984 187.091 197.784 187.091 206.168V301.455C187.091 309.845 193.892 316.645 202.282 316.645H309.722C318.11 316.645 324.91 309.844 324.91 301.455V206.168C324.909 197.784 318.109 190.984 309.722 190.984Z" fill="#3A506B"/>
<path d="M270.277 199.516C267.775 199.516 265.748 201.544 265.748 204.045C265.748 206.546 267.775 208.573 270.277 208.573C272.778 208.573 274.806 206.546 274.806 204.045C274.807 201.544 272.778 199.516 270.277 199.516Z" fill="white"/>
<path d="M288.662 199.516C286.159 199.516 284.132 201.544 284.132 204.045C284.132 206.546 286.159 208.573 288.662 208.573C291.163 208.573 293.191 206.546 293.191 204.045C293.191 201.544 291.163 199.516 288.662 199.516Z" fill="white"/>
<path d="M307.046 199.516C304.544 199.516 302.517 201.544 302.517 204.045C302.517 206.546 304.544 208.573 307.046 208.573C309.549 208.573 311.575 206.546 311.575 204.045C311.575 201.544 309.549 199.516 307.046 199.516Z" fill="white"/>
<path d="M187.091 217.944V301.456C187.091 309.846 193.892 316.646 202.282 316.646H309.722C318.11 316.646 324.91 309.845 324.91 301.456V217.944H187.091V217.944Z" fill="#0B132B"/>
<path d="M269.712 283.592C268.473 283.592 267.234 283.441 265.995 283.139C264.757 282.838 263.732 282.299 262.92 281.524C261.04 282.859 258.67 283.527 255.808 283.527C253.672 283.527 251.707 283.204 249.913 282.558C248.162 281.868 246.645 280.856 245.364 279.52C244.125 278.185 243.143 276.548 242.416 274.609C241.733 272.627 241.391 270.344 241.391 267.759C241.391 265.561 241.733 263.515 242.416 261.619C243.143 259.723 244.189 258.086 245.556 256.707C246.923 255.286 248.589 254.166 250.554 253.347C252.561 252.528 254.825 252.119 257.346 252.119C259.866 252.119 262.087 252.356 264.009 252.83C265.974 253.261 267.597 253.713 268.879 254.187V274.48C268.879 275.471 269.071 276.138 269.455 276.483C269.883 276.828 270.481 277 271.249 277C271.933 277 272.595 276.806 273.236 276.418C273.919 276.031 274.496 275.341 274.966 274.35C275.436 273.316 275.82 271.938 276.119 270.214C276.418 268.448 276.568 266.229 276.568 263.558C276.568 260.887 276.098 258.452 275.158 256.255C274.261 254.015 272.937 252.119 271.185 250.568C269.477 248.974 267.362 247.746 264.842 246.884C262.365 245.98 259.545 245.527 256.384 245.527C253.352 245.527 250.554 246.044 247.991 247.078C245.471 248.112 243.271 249.599 241.391 251.537C239.555 253.433 238.102 255.76 237.034 258.517C236.009 261.274 235.497 264.376 235.497 267.823C235.497 271.399 236.009 274.544 237.034 277.259C238.059 279.93 239.512 282.17 241.391 283.98C243.314 285.789 245.62 287.146 248.311 288.051C251.045 288.999 254.121 289.473 257.538 289.473C259.674 289.473 261.681 289.322 263.561 289.02C265.483 288.762 267.085 288.503 268.366 288.245L269.327 294.32C268.259 294.664 266.636 295.031 264.458 295.418C262.279 295.806 259.973 296 257.538 296C253.437 296 249.593 295.461 246.005 294.384C242.416 293.307 239.277 291.627 236.586 289.344C233.937 287.06 231.844 284.152 230.307 280.619C228.769 277.043 228 272.778 228 267.823C228 263.041 228.812 258.862 230.435 255.286C232.058 251.667 234.194 248.651 236.842 246.238C239.49 243.825 242.502 242.016 245.876 240.81C249.294 239.603 252.796 239 256.384 239C260.314 239 263.966 239.56 267.341 240.68C270.715 241.757 273.62 243.351 276.055 245.463C278.532 247.574 280.476 250.202 281.886 253.347C283.295 256.449 284 260.025 284 264.075C284 267.22 283.658 270.02 282.975 272.476C282.334 274.889 281.373 276.914 280.092 278.551C278.853 280.188 277.358 281.438 275.606 282.299C273.855 283.161 271.89 283.592 269.712 283.592ZM260.677 275.901C260.592 275.557 260.528 275.061 260.485 274.415C260.442 273.726 260.421 273.079 260.421 272.476V259.293C259.567 259.12 258.67 259.034 257.73 259.034C256.32 259.034 255.124 259.271 254.142 259.745C253.159 260.176 252.369 260.779 251.771 261.554C251.173 262.33 250.725 263.256 250.426 264.333C250.169 265.367 250.041 266.509 250.041 267.759C250.041 269.008 250.148 270.171 250.362 271.248C250.575 272.282 250.938 273.187 251.451 273.963C252.006 274.738 252.732 275.363 253.629 275.837C254.526 276.268 255.637 276.483 256.961 276.483C257.73 276.483 258.456 276.44 259.14 276.354C259.823 276.224 260.336 276.074 260.677 275.901Z" fill="#0CD15B"/>
</svg>
