<svg width="512" height="512" viewBox="0 0 512 512" fill="none" xmlns="http://www.w3.org/2000/svg">
<path d="M255.998 40.93C137.225 40.93 40.93 137.223 40.93 256C40.93 374.777 137.225 471.072 255.998 471.072C374.781 471.072 471.073 374.777 471.073 256C471.073 137.223 374.781 40.93 255.998 40.93Z" fill="#F5F5F5"/>
<path d="M255.998 1C115.391 1 1 115.393 1 256C1 396.607 115.391 511 255.998 511C396.607 511 511 396.607 511 256C511 115.393 396.607 1 255.998 1ZM255.998 502.831C119.896 502.831 9.169 392.102 9.169 256C9.169 119.898 119.896 9.169 255.998 9.169C392.102 9.169 502.831 119.898 502.831 256C502.831 392.102 392.102 502.831 255.998 502.831Z" fill="#F5F5F5"/>
<path d="M175.082 119.61C164.756 117.022 156.688 108.954 154.101 98.63L153.659 96.866L153.22 98.63C150.63 108.954 142.563 117.023 132.238 119.61L130.472 120.053L132.238 120.494C142.562 123.082 150.63 131.148 153.22 141.474L153.659 143.238L154.101 141.474C156.689 131.148 164.756 123.081 175.082 120.494L176.847 120.053L175.082 119.61Z" fill="#48ACF0"/>
<path d="M121.246 148.023C114.611 146.361 109.428 141.176 107.765 134.543L107.481 133.41L107.199 134.543C105.535 141.177 100.351 146.361 93.718 148.023L92.584 148.308L93.718 148.591C100.352 150.254 105.535 155.437 107.199 162.071L107.481 163.205L107.765 162.071C109.428 155.436 114.612 150.254 121.246 148.591L122.38 148.308L121.246 148.023Z" fill="#48ACF0"/>
<path d="M379.138 385.337C371.65 383.461 365.799 377.609 363.922 370.122L363.601 368.844L363.283 370.122C361.405 377.609 355.555 383.461 348.067 385.337L346.787 385.659L348.067 385.978C355.554 387.855 361.404 393.705 363.283 401.193L363.601 402.472L363.922 401.193C365.799 393.705 371.649 387.855 379.138 385.978L380.417 385.659L379.138 385.337Z" fill="#0CD15B"/>
<path d="M333.482 402.962C320.864 399.804 311.014 389.954 307.856 377.341L307.318 375.187L306.773 377.341C303.617 389.954 293.77 399.804 281.151 402.962L279.004 403.501L281.151 404.038C293.771 407.196 303.617 417.048 306.773 429.665L307.318 431.813L307.856 429.665C311.014 417.048 320.864 407.196 333.482 404.038L335.629 403.501L333.482 402.962Z" fill="#48ACF0"/>
<path d="M118.051 196.759C105.772 193.681 96.182 184.092 93.103 171.812L92.582 169.718L92.051 171.812C88.976 184.092 79.39 193.681 67.111 196.759L65.018 197.284L67.111 197.809C79.39 200.882 88.976 210.469 92.051 222.754L92.582 224.848L93.103 222.754C96.182 210.469 105.772 200.882 118.051 197.809L120.148 197.284L118.051 196.759Z" fill="#0CD15B"/>
<path d="M345.757 148.309H155.533C141.847 148.309 130.722 159.237 130.392 172.837C130.542 173.923 131.983 182.088 141.917 187.279C148.544 190.744 159.284 190.704 164.359 190.704H356.471C361.844 190.704 366.819 192.392 370.905 195.261V173.456C370.906 159.568 359.647 148.309 345.757 148.309Z" fill="#0B132B"/>
<path d="M356.473 190.704H164.36C159.285 190.704 148.544 190.744 141.918 187.279C131.26 181.709 130.377 172.713 130.377 172.713V338.539C130.377 352.431 141.64 363.691 155.533 363.691H356.472C370.365 363.691 381.622 352.43 381.622 338.539V215.851C381.623 201.959 370.366 190.704 356.473 190.704Z" fill="#1C2541"/>
<path d="M241.057 301.061C239.155 301.061 237.252 300.831 235.35 300.371C233.448 299.91 231.873 299.088 230.627 297.905C227.741 299.943 224.1 300.963 219.705 300.963C216.425 300.963 213.407 300.469 210.652 299.483C207.963 298.431 205.634 296.885 203.666 294.847C201.764 292.808 200.255 290.31 199.14 287.35C198.09 284.325 197.565 280.84 197.565 276.895C197.565 273.541 198.09 270.417 199.14 267.524C200.255 264.63 201.862 262.132 203.961 260.027C206.06 257.857 208.619 256.147 211.636 254.898C214.719 253.649 218.196 253.024 222.066 253.024C225.937 253.024 229.348 253.385 232.3 254.109C235.317 254.766 237.81 255.457 239.778 256.18V287.153C239.778 288.666 240.073 289.685 240.664 290.211C241.32 290.737 242.238 291 243.419 291C244.468 291 245.485 290.704 246.469 290.112C247.519 289.52 248.404 288.468 249.126 286.956C249.847 285.378 250.438 283.273 250.897 280.643C251.356 277.947 251.586 274.56 251.586 270.483C251.586 266.406 250.864 262.69 249.421 259.337C248.043 255.917 246.01 253.024 243.32 250.656C240.696 248.223 237.449 246.349 233.579 245.034C229.774 243.653 225.445 242.963 220.59 242.963C215.933 242.963 211.636 243.752 207.7 245.33C203.83 246.908 200.452 249.177 197.565 252.136C194.744 255.029 192.514 258.581 190.874 262.789C189.3 266.998 188.513 271.732 188.513 276.993C188.513 282.451 189.3 287.252 190.874 291.395C192.449 295.472 194.679 298.891 197.565 301.653C200.517 304.415 204.059 306.486 208.192 307.867C212.391 309.314 217.114 310.037 222.362 310.037C225.642 310.037 228.725 309.807 231.611 309.347C234.563 308.952 237.023 308.558 238.991 308.163L240.467 317.435C238.827 317.961 236.334 318.52 232.989 319.112C229.643 319.704 226.101 320 222.362 320C216.064 320 210.16 319.178 204.65 317.534C199.14 315.89 194.318 313.325 190.185 309.84C186.118 306.355 182.904 301.916 180.542 296.524C178.181 291.066 177 284.556 177 276.993C177 269.694 178.246 263.315 180.739 257.857C183.232 252.333 186.512 247.73 190.579 244.048C194.646 240.365 199.271 237.603 204.453 235.762C209.701 233.921 215.08 233 220.59 233C226.625 233 232.234 233.855 237.416 235.565C242.599 237.209 247.06 239.642 250.799 242.864C254.603 246.086 257.588 250.098 259.753 254.898C261.918 259.633 263 265.091 263 271.272C263 276.073 262.475 280.347 261.426 284.095C260.442 287.778 258.966 290.868 256.998 293.367C255.095 295.866 252.799 297.773 250.11 299.088C247.42 300.404 244.403 301.061 241.057 301.061ZM227.183 289.323C227.052 288.797 226.953 288.041 226.888 287.054C226.822 286.002 226.789 285.016 226.789 284.095V263.973C225.478 263.71 224.1 263.578 222.657 263.578C220.492 263.578 218.655 263.94 217.146 264.663C215.638 265.321 214.424 266.241 213.506 267.425C212.587 268.609 211.899 270.023 211.439 271.667C211.046 273.245 210.849 274.988 210.849 276.895C210.849 278.802 211.013 280.577 211.341 282.221C211.669 283.799 212.227 285.18 213.014 286.364C213.867 287.548 214.982 288.501 216.359 289.224C217.737 289.882 219.442 290.211 221.476 290.211C222.657 290.211 223.772 290.145 224.822 290.014C225.871 289.816 226.658 289.586 227.183 289.323Z" fill="#0CD15B"/>
<path d="M313.672 250.135C307.449 250.135 302.4 255.182 302.4 261.407V292.421C302.4 298.648 307.449 303.693 313.672 303.693H381.623V250.134H313.672V250.135Z" fill="#48ACF0"/>
<path d="M324.255 265.73C318.078 265.73 313.07 270.736 313.07 276.915C313.07 283.092 318.078 288.102 324.255 288.102C330.432 288.102 335.438 283.092 335.438 276.915C335.438 270.736 330.432 265.73 324.255 265.73Z" fill="white"/>
</svg>
