<svg width="512" height="512" viewBox="0 0 512 512" fill="none" xmlns="http://www.w3.org/2000/svg">
<path d="M255.998 40.93C137.225 40.93 40.93 137.223 40.93 256C40.93 374.777 137.225 471.072 255.998 471.072C374.781 471.072 471.073 374.777 471.073 256C471.073 137.223 374.781 40.93 255.998 40.93Z" fill="#F5F5F5"/>
<path d="M255.998 1C115.391 1 1 115.393 1 256C1 396.607 115.391 511 255.998 511C396.607 511 511 396.607 511 256C511 115.393 396.607 1 255.998 1ZM255.998 502.831C119.896 502.831 9.169 392.102 9.169 256C9.169 119.898 119.896 9.169 255.998 9.169C392.102 9.169 502.831 119.898 502.831 256C502.831 392.102 392.102 502.831 255.998 502.831Z" fill="#F5F5F5"/>
<path d="M175.082 119.61C164.756 117.022 156.688 108.954 154.101 98.63L153.659 96.866L153.22 98.63C150.63 108.954 142.563 117.023 132.238 119.61L130.472 120.053L132.238 120.494C142.562 123.082 150.63 131.148 153.22 141.474L153.659 143.238L154.101 141.474C156.689 131.148 164.756 123.081 175.082 120.494L176.847 120.053L175.082 119.61Z" fill="#48ACF0"/>
<path d="M121.246 148.023C114.611 146.361 109.428 141.176 107.765 134.543L107.481 133.41L107.199 134.543C105.535 141.177 100.351 146.361 93.718 148.023L92.584 148.308L93.718 148.591C100.352 150.254 105.535 155.437 107.199 162.071L107.481 163.205L107.765 162.071C109.428 155.436 114.612 150.254 121.246 148.591L122.38 148.308L121.246 148.023Z" fill="#48ACF0"/>
<path d="M379.138 385.337C371.65 383.461 365.799 377.609 363.922 370.122L363.601 368.844L363.283 370.122C361.405 377.609 355.555 383.461 348.067 385.337L346.787 385.659L348.067 385.978C355.554 387.855 361.404 393.705 363.283 401.193L363.601 402.472L363.922 401.193C365.799 393.705 371.649 387.855 379.138 385.978L380.417 385.659L379.138 385.337Z" fill="#0CD15B"/>
<path d="M333.482 402.962C320.864 399.804 311.014 389.954 307.856 377.341L307.318 375.187L306.773 377.341C303.617 389.954 293.77 399.804 281.151 402.962L279.004 403.501L281.151 404.038C293.771 407.196 303.617 417.048 306.773 429.665L307.318 431.813L307.856 429.665C311.014 417.048 320.864 407.196 333.482 404.038L335.629 403.501L333.482 402.962Z" fill="#48ACF0"/>
<path d="M118.051 196.759C105.772 193.681 96.182 184.092 93.103 171.812L92.582 169.718L92.051 171.812C88.976 184.092 79.39 193.681 67.111 196.759L65.018 197.284L67.111 197.809C79.39 200.882 88.976 210.469 92.051 222.754L92.582 224.848L93.103 222.754C96.182 210.469 105.772 200.882 118.051 197.809L120.148 197.284L118.051 196.759Z" fill="#0CD15B"/>
<path d="M345.757 148.309H155.533C141.847 148.309 130.722 159.237 130.392 172.837C130.542 173.923 131.983 182.088 141.917 187.279C148.544 190.744 159.284 190.704 164.359 190.704H356.471C361.844 190.704 366.819 192.392 370.905 195.261V173.456C370.906 159.568 359.647 148.309 345.757 148.309Z" fill="#0B132B"/>
<path d="M356.473 190.704H164.36C159.285 190.704 148.544 190.744 141.918 187.279C131.26 181.709 130.377 172.713 130.377 172.713V338.539C130.377 352.431 141.64 363.691 155.533 363.691H356.472C370.365 363.691 381.622 352.43 381.622 338.539V215.851C381.623 201.959 370.366 190.704 356.473 190.704Z" fill="#1C2541"/>
<path d="M207.51 225.96C207.51 223.813 209.272 221.807 212.795 219.94C216.318 217.98 220.954 217 226.702 217C231.152 217 234.026 217.933 235.325 219.8C236.252 221.107 236.715 222.32 236.715 223.44V227.64C247.192 228.76 254.47 230.72 258.55 233.52C260.219 234.64 261.053 235.713 261.053 236.74C261.053 241.593 259.894 246.82 257.576 252.42C255.351 258.02 253.172 260.82 251.04 260.82C250.669 260.82 249.464 260.4 247.424 259.56C241.305 256.853 236.205 255.5 232.126 255.5C228.139 255.5 225.404 255.873 223.921 256.62C222.53 257.367 221.834 258.533 221.834 260.12C221.834 261.613 222.854 262.78 224.894 263.62C226.934 264.46 229.437 265.207 232.404 265.86C235.464 266.42 238.755 267.4 242.278 268.8C245.894 270.2 249.232 271.88 252.291 273.84C255.351 275.8 257.901 278.74 259.94 282.66C261.98 286.487 263 290.407 263 294.42C263 298.433 262.629 301.747 261.887 304.36C261.146 306.973 259.848 309.68 257.993 312.48C256.232 315.28 253.497 317.8 249.788 320.04C246.172 322.187 241.815 323.773 236.715 324.8V327.04C236.715 329.187 234.954 331.193 231.43 333.06C227.907 335.02 223.272 336 217.523 336C213.073 336 210.199 335.067 208.901 333.2C207.974 331.893 207.51 330.68 207.51 329.56V325.36C201.483 324.8 196.245 323.913 191.795 322.7C183.265 320.367 179 317.847 179 315.14C179 309.913 179.742 304.5 181.225 298.9C182.709 293.207 184.47 290.36 186.51 290.36C186.881 290.36 190.728 291.62 198.053 294.14C205.377 296.66 210.894 297.92 214.603 297.92C218.311 297.92 220.722 297.547 221.834 296.8C222.947 295.96 223.503 294.793 223.503 293.3C223.503 291.807 222.483 290.547 220.444 289.52C218.404 288.4 215.854 287.513 212.795 286.86C209.735 286.207 206.397 285.18 202.781 283.78C199.258 282.38 195.967 280.747 192.907 278.88C189.848 277.013 187.298 274.26 185.258 270.62C183.219 266.98 182.199 262.733 182.199 257.88C182.199 240.707 190.636 230.673 207.51 227.78V225.96Z" fill="#0CD15B"/>
<path d="M313.672 250.135C307.449 250.135 302.4 255.182 302.4 261.407V292.421C302.4 298.648 307.449 303.693 313.672 303.693H381.623V250.134H313.672V250.135Z" fill="#48ACF0"/>
<path d="M324.255 265.73C318.078 265.73 313.07 270.736 313.07 276.915C313.07 283.092 318.078 288.102 324.255 288.102C330.432 288.102 335.438 283.092 335.438 276.915C335.438 270.736 330.432 265.73 324.255 265.73Z" fill="white"/>
</svg>
