<svg width="72" height="105" viewBox="0 0 72 105" fill="none" xmlns="http://www.w3.org/2000/svg">
<path d="M24.4371 7.90588C24.4371 6.01176 25.947 4.24117 28.9669 2.59411C31.9868 0.864704 35.9603 0 40.8874 0C44.702 0 47.1656 0.823529 48.2781 2.47059C49.0729 3.62353 49.4702 4.69412 49.4702 5.68235V9.38823C58.4503 10.3765 64.6887 12.1059 68.1854 14.5765C69.6159 15.5647 70.3311 16.5118 70.3311 17.4176C70.3311 21.7 69.3378 26.3118 67.351 31.2529C65.4437 36.1941 63.5762 38.6647 61.7483 38.6647C61.4305 38.6647 60.3974 38.2941 58.649 37.5529C53.404 35.1647 49.0331 33.9706 45.5364 33.9706C42.1192 33.9706 39.7748 34.3 38.5033 34.9588C37.3113 35.6176 36.7152 36.6471 36.7152 38.0471C36.7152 39.3647 37.5894 40.3941 39.3378 41.1353C41.0861 41.8765 43.2318 42.5353 45.7748 43.1118C48.3974 43.6059 51.2185 44.4706 54.2384 45.7059C57.3378 46.9412 60.1987 48.4235 62.8212 50.1529C65.4437 51.8824 67.6291 54.4765 69.3775 57.9353C71.1258 61.3118 72 64.7706 72 68.3118C72 71.8529 71.6821 74.7765 71.0464 77.0824C70.4106 79.3882 69.298 81.7765 67.7086 84.2471C66.1987 86.7177 63.8543 88.9412 60.6755 90.9177C57.5762 92.8118 53.8411 94.2118 49.4702 95.1176V97.0941C49.4702 98.9882 47.9603 100.759 44.9404 102.406C41.9205 104.135 37.947 105 33.0199 105C29.2053 105 26.7417 104.176 25.6291 102.529C24.8344 101.376 24.4371 100.306 24.4371 99.3176V95.6118C19.2715 95.1177 14.7815 94.3353 10.9669 93.2647C3.65563 91.2059 0 88.9823 0 86.5941C0 81.9823 0.635762 77.2059 1.90729 72.2647C3.17881 67.2412 4.68874 64.7294 6.43709 64.7294C6.75497 64.7294 10.053 65.8412 16.3311 68.0647C22.6093 70.2882 27.3377 71.4 30.5166 71.4C33.6954 71.4 35.7616 71.0706 36.7152 70.4118C37.6689 69.6706 38.1457 68.6412 38.1457 67.3235C38.1457 66.0059 37.2715 64.8941 35.5232 63.9882C33.7748 63 31.5894 62.2176 28.9669 61.6412C26.3444 61.0647 23.4834 60.1588 20.3841 58.9235C17.3642 57.6882 14.543 56.2471 11.9205 54.6C9.29801 52.9529 7.11258 50.5235 5.36424 47.3118C3.61589 44.1 2.74172 40.3529 2.74172 36.0706C2.74172 20.9176 9.97351 12.0647 24.4371 9.51177V7.90588Z" fill="white"/>
</svg>
