<svg width="252" height="255" viewBox="0 0 252 255" fill="none" xmlns="http://www.w3.org/2000/svg">
<path d="M187.488 198.72C181.92 198.72 176.352 198.048 170.784 196.704C165.216 195.36 160.608 192.96 156.96 189.504C148.512 195.456 137.856 198.432 124.992 198.432C115.392 198.432 106.56 196.992 98.496 194.112C90.624 191.04 83.808 186.528 78.048 180.576C72.48 174.624 68.064 167.328 64.8 158.688C61.728 149.856 60.192 139.68 60.192 128.16C60.192 118.368 61.728 109.248 64.8 100.8C68.064 92.352 72.768 85.056 78.912 78.912C85.056 72.576 92.544 67.584 101.376 63.936C110.4 60.288 120.576 58.464 131.904 58.464C143.232 58.464 153.216 59.52 161.856 61.632C170.688 63.552 177.984 65.568 183.744 67.68V158.112C183.744 162.528 184.608 165.504 186.336 167.04C188.256 168.576 190.944 169.344 194.4 169.344C197.472 169.344 200.448 168.48 203.328 166.752C206.4 165.024 208.992 161.952 211.104 157.536C213.216 152.928 214.944 146.784 216.288 139.104C217.632 131.232 218.304 121.344 218.304 109.44C218.304 97.536 216.192 86.688 211.968 76.896C207.936 66.912 201.984 58.464 194.112 51.552C186.432 44.448 176.928 38.976 165.6 35.136C154.464 31.104 141.792 29.088 127.584 29.088C113.952 29.088 101.376 31.392 89.856 36C78.528 40.608 68.64 47.232 60.192 55.872C51.936 64.32 45.408 74.688 40.608 86.976C36 99.264 33.696 113.088 33.696 128.448C33.696 144.384 36 158.4 40.608 170.496C45.216 182.4 51.744 192.384 60.192 200.448C68.832 208.512 79.2 214.56 91.296 218.592C103.584 222.816 117.408 224.928 132.768 224.928C142.368 224.928 151.392 224.256 159.84 222.912C168.48 221.76 175.68 220.608 181.44 219.456L185.76 246.528C180.96 248.064 173.664 249.696 163.872 251.424C154.08 253.152 143.712 254.016 132.768 254.016C114.336 254.016 97.056 251.616 80.928 246.816C64.8 242.016 50.688 234.528 38.592 224.352C26.688 214.176 17.28 201.216 10.368 185.472C3.456 169.536 0 150.528 0 128.448C0 107.136 3.648 88.512 10.944 72.576C18.24 56.448 27.84 43.008 39.744 32.256C51.648 21.504 65.184 13.44 80.352 8.064C95.712 2.688 111.456 0 127.584 0C145.248 0 161.664 2.496 176.832 7.48801C192 12.288 205.056 19.392 216 28.8C227.136 38.208 235.872 49.92 242.208 63.936C248.544 77.76 251.712 93.696 251.712 111.744C251.712 125.76 250.176 138.24 247.104 149.184C244.224 159.936 239.904 168.96 234.144 176.256C228.576 183.552 221.856 189.12 213.984 192.96C206.112 196.8 197.28 198.72 187.488 198.72ZM146.88 164.448C146.496 162.912 146.208 160.704 146.016 157.824C145.824 154.752 145.728 151.872 145.728 149.184V90.432C141.888 89.664 137.856 89.28 133.632 89.28C127.296 89.28 121.92 90.336 117.504 92.448C113.088 94.368 109.536 97.056 106.848 100.512C104.16 103.968 102.144 108.096 100.8 112.896C99.648 117.504 99.072 122.592 99.072 128.16C99.072 133.728 99.552 138.912 100.512 143.712C101.472 148.32 103.104 152.352 105.408 155.808C107.904 159.264 111.168 162.048 115.2 164.16C119.232 166.08 124.224 167.04 130.176 167.04C133.632 167.04 136.896 166.848 139.968 166.464C143.04 165.888 145.344 165.216 146.88 164.448Z" fill="#0CD15B"/>
</svg>
