<svg width="1189" height="245" viewBox="0 0 1189 245" fill="none" xmlns="http://www.w3.org/2000/svg">
<path d="M59.04 18.432C59.04 14.016 62.688 9.888 69.984 6.04799C77.28 2.016 86.88 0 98.784 0C108 0 113.952 1.92 116.64 5.75999C118.56 8.44799 119.52 10.944 119.52 13.248V21.888C141.216 24.192 156.288 28.224 164.736 33.984C168.192 36.288 169.92 38.496 169.92 40.608C169.92 50.592 167.52 61.344 162.72 72.864C158.112 84.384 153.6 90.144 149.184 90.144C148.416 90.144 145.92 89.28 141.696 87.552C129.024 81.984 118.464 79.2 110.016 79.2C101.76 79.2 96.096 79.968 93.024 81.504C90.144 83.04 88.704 85.44 88.704 88.704C88.704 91.776 90.816 94.176 95.04 95.904C99.264 97.632 104.448 99.168 110.592 100.512C116.928 101.664 123.744 103.68 131.04 106.56C138.528 109.44 145.44 112.896 151.776 116.928C158.112 120.96 163.392 127.008 167.616 135.072C171.84 142.944 173.952 151.008 173.952 159.264C173.952 167.52 173.184 174.336 171.648 179.712C170.112 185.088 167.424 190.656 163.584 196.416C159.936 202.176 154.272 207.36 146.592 211.968C139.104 216.384 130.08 219.648 119.52 221.76V226.368C119.52 230.784 115.872 234.912 108.576 238.752C101.28 242.784 91.68 244.8 79.776 244.8C70.56 244.8 64.608 242.88 61.92 239.04C60 236.352 59.04 233.856 59.04 231.552V222.912C46.56 221.76 35.712 219.936 26.496 217.44C8.832 212.64 0 207.456 0 201.888C0 191.136 1.536 180 4.608 168.48C7.68 156.768 11.328 150.912 15.552 150.912C16.32 150.912 24.288 153.504 39.456 158.688C54.624 163.872 66.048 166.464 73.728 166.464C81.408 166.464 86.4 165.696 88.704 164.16C91.008 162.432 92.16 160.032 92.16 156.96C92.16 153.888 90.048 151.296 85.824 149.184C81.6 146.88 76.32 145.056 69.984 143.712C63.648 142.368 56.736 140.256 49.248 137.376C41.952 134.496 35.136 131.136 28.8 127.296C22.464 123.456 17.184 117.792 12.96 110.304C8.736 102.816 6.624 94.08 6.624 84.096C6.624 48.768 24.096 28.128 59.04 22.176V18.432Z" fill="#0CD15B"/>
<path d="M273.912 55.64C273.912 63.32 273.624 70.712 273.048 77.816C272.664 84.92 272.28 89.912 271.896 92.792H274.2C279.192 84.728 285.624 78.872 293.496 75.224C301.368 71.576 310.104 69.752 319.704 69.752C336.792 69.752 350.424 74.36 360.6 83.576C370.968 92.6 376.152 107.192 376.152 127.352V229.88H333.24V138.008C333.24 115.352 324.792 104.024 307.896 104.024C295.032 104.024 286.104 108.536 281.112 117.56C276.312 126.392 273.912 139.16 273.912 155.864V229.88H231V11H273.912V55.64Z" fill="#0D0F26"/>
<path d="M484.793 69.464C505.913 69.464 522.041 74.072 533.177 83.288C544.505 92.312 550.169 106.232 550.169 125.048V229.88H520.217L511.865 208.568H510.713C503.993 217.016 496.889 223.16 489.401 227C481.913 230.84 471.641 232.76 458.585 232.76C444.569 232.76 432.953 228.728 423.737 220.664C414.521 212.408 409.913 199.832 409.913 182.936C409.913 166.232 415.769 153.944 427.481 146.072C439.193 138.008 456.761 133.592 480.185 132.824L507.545 131.96V125.048C507.545 116.792 505.337 110.744 500.921 106.904C496.697 103.064 490.745 101.144 483.065 101.144C475.385 101.144 467.897 102.296 460.601 104.6C453.305 106.712 446.009 109.4 438.713 112.664L424.601 83.576C433.049 79.16 442.361 75.704 452.537 73.208C462.905 70.712 473.657 69.464 484.793 69.464ZM490.841 157.592C477.017 157.976 467.417 160.472 462.041 165.08C456.665 169.688 453.977 175.736 453.977 183.224C453.977 189.752 455.897 194.456 459.737 197.336C463.577 200.024 468.569 201.368 474.713 201.368C483.929 201.368 491.705 198.68 498.041 193.304C504.377 187.736 507.545 179.96 507.545 169.976V157.016L490.841 157.592Z" fill="#0D0F26"/>
<path d="M683.374 69.752C700.27 69.752 713.806 74.36 723.982 83.576C734.158 92.6 739.246 107.192 739.246 127.352V229.88H696.334V138.008C696.334 126.68 694.318 118.232 690.286 112.664C686.254 106.904 679.822 104.024 670.99 104.024C657.934 104.024 649.006 108.536 644.206 117.56C639.406 126.392 637.006 139.16 637.006 155.864V229.88H594.094V72.632H626.926L632.686 92.792H634.99C639.982 84.728 646.798 78.872 655.438 75.224C664.27 71.576 673.582 69.752 683.374 69.752Z" fill="#0D0F26"/>
<path d="M833.199 232.76C815.727 232.76 801.423 225.944 790.287 212.312C779.343 198.488 773.871 178.232 773.871 151.544C773.871 124.664 779.439 104.312 790.575 90.488C801.711 76.664 816.303 69.752 834.351 69.752C845.679 69.752 854.991 71.96 862.287 76.376C869.583 80.792 875.343 86.264 879.567 92.792H881.007C880.431 89.72 879.759 85.304 878.991 79.544C878.223 73.592 877.839 67.544 877.839 61.4V11H920.751V229.88H887.919L879.567 209.432H877.839C873.615 215.96 867.951 221.528 860.847 226.136C853.743 230.552 844.527 232.76 833.199 232.76ZM848.175 198.488C860.079 198.488 868.431 195.032 873.231 188.12C878.031 181.016 880.527 170.456 880.719 156.44V151.832C880.719 136.472 878.319 124.76 873.519 116.696C868.911 108.632 860.271 104.6 847.599 104.6C838.191 104.6 830.799 108.728 825.423 116.984C820.047 125.048 817.359 136.76 817.359 152.12C817.359 167.48 820.047 179.096 825.423 186.968C830.799 194.648 838.383 198.488 848.175 198.488Z" fill="#0D0F26"/>
<path d="M1008.54 229.88H965.625V11H1008.54V229.88Z" fill="#0D0F26"/>
<path d="M1118.17 69.752C1139.87 69.752 1157.05 75.992 1169.73 88.472C1182.4 100.76 1188.74 118.328 1188.74 141.176V161.912H1087.36C1087.74 174.008 1091.3 183.512 1098.02 190.424C1104.93 197.336 1114.43 200.792 1126.53 200.792C1136.7 200.792 1145.92 199.832 1154.18 197.912C1162.43 195.8 1170.97 192.632 1179.81 188.408V221.528C1172.13 225.368 1163.97 228.152 1155.33 229.88C1146.88 231.8 1136.61 232.76 1124.51 232.76C1108.77 232.76 1094.85 229.88 1082.75 224.12C1070.66 218.168 1061.15 209.24 1054.24 197.336C1047.33 185.432 1043.87 170.456 1043.87 152.408C1043.87 133.976 1046.94 118.712 1053.09 106.616C1059.42 94.328 1068.16 85.112 1079.3 78.968C1090.43 72.824 1103.39 69.752 1118.17 69.752ZM1118.46 100.28C1110.21 100.28 1103.29 102.968 1097.73 108.344C1092.35 113.72 1089.18 122.072 1088.22 133.4H1148.42C1148.22 123.8 1145.73 115.928 1140.93 109.784C1136.13 103.448 1128.64 100.28 1118.46 100.28Z" fill="#0D0F26"/>
</svg>
