<svg width="512" height="512" viewBox="0 0 512 512" fill="none" xmlns="http://www.w3.org/2000/svg">
<path d="M256.008 40.928C137.227 40.928 40.938 137.221 40.938 256C40.938 374.777 137.227 471.066 256.008 471.066C374.78 471.066 471.07 374.777 471.07 256C471.07 137.221 374.781 40.928 256.008 40.928Z" fill="#1C2541"/>
<path d="M256.008 1C115.398 1 1 115.392 1 256C1 396.605 115.397 511 256.008 511C396.611 511 511 396.605 511 256C511 115.392 396.611 1 256.008 1ZM256.008 502.827C119.903 502.827 9.173 392.097 9.173 256C9.173 119.897 119.902 9.169 256.008 9.169C392.105 9.169 502.827 119.898 502.827 256C502.828 392.097 392.105 502.827 256.008 502.827Z" fill="#1C2541"/>
<path d="M372.015 173.443L263.171 122.562C260.951 121.523 258.598 120.998 256.175 120.998C253.749 120.998 251.4 121.523 249.184 122.561L140.334 173.444C134.017 176.396 130.086 183.294 130.551 190.61C132.516 221.339 139.691 279.366 165.69 322.703C198.035 376.613 237.218 391.107 252.562 394.832C254.926 395.403 257.424 395.411 259.797 394.832C275.133 391.107 314.317 376.613 346.66 322.703C372.659 279.374 379.833 221.344 381.8 190.608C382.265 183.296 378.333 176.396 372.015 173.443Z" fill="#0B132B"/>
<path d="M378.619 159.311L269.779 108.432C261.173 104.407 251.168 104.412 242.577 108.431L133.731 159.311C121.647 164.957 114.115 177.934 114.983 191.602C117.04 223.746 124.618 284.564 152.316 330.731C187.687 389.691 231.631 405.799 248.89 409.997C251.278 410.568 253.731 410.865 256.175 410.865C258.624 410.865 261.076 410.568 263.468 409.989C280.72 405.799 324.664 389.691 360.035 330.731C387.729 284.572 395.311 223.749 397.368 191.6C398.236 177.936 390.703 164.961 378.619 159.311ZM381.8 190.607C379.833 221.342 372.659 279.373 346.66 322.702C314.316 376.612 275.133 391.106 259.797 394.831C257.424 395.41 254.926 395.402 252.562 394.831C237.218 391.106 198.035 376.612 165.69 322.702C139.691 279.365 132.516 221.339 130.551 190.609C130.086 183.293 134.017 176.395 140.334 173.443L249.184 122.56C251.4 121.523 253.749 120.997 256.175 120.997C258.598 120.997 260.951 121.522 263.171 122.561L372.015 173.442C378.333 176.396 382.265 183.296 381.8 190.607Z" fill="#0CD15B"/>
<path d="M355.469 111.813C348.611 110.098 343.268 104.749 341.538 97.898L341.249 96.729L340.959 97.898C339.238 104.749 333.888 110.098 327.028 111.813L325.867 112.109L327.028 112.406C333.887 114.12 339.238 119.47 340.959 126.323L341.249 127.492L341.538 126.323C343.267 119.471 348.61 114.12 355.469 112.406L356.631 112.109L355.469 111.813Z" fill="#3A506B"/>
<path d="M141.729 358.6C133.761 356.604 127.539 350.381 125.547 342.414L125.2 341.059L124.857 342.414C122.865 350.381 116.642 356.603 108.664 358.6L107.309 358.942L108.664 359.286C116.643 361.281 122.865 367.504 124.857 375.471L125.2 376.834L125.547 375.471C127.538 367.504 133.761 361.282 141.729 359.286L143.096 358.942L141.729 358.6Z" fill="#0CD15B"/>
<path d="M419.49 336.763C408.256 333.952 399.482 325.17 396.664 313.936L396.187 312.024L395.705 313.936C392.894 325.17 384.119 333.953 372.877 336.763L370.965 337.25L372.877 337.729C384.119 340.54 392.895 349.314 395.705 360.548L396.187 362.468L396.664 360.548C399.482 349.314 408.256 340.539 419.49 337.729L421.41 337.25L419.49 336.763Z" fill="#48ACF0"/>
<path d="M387.47 377.801C380.329 376.011 374.753 370.428 372.96 363.291L372.659 362.072L372.35 363.291C370.565 370.428 364.99 376.011 357.845 377.801L356.63 378.106L357.845 378.411C364.99 380.201 370.565 385.776 372.35 392.913L372.659 394.14L372.96 392.913C374.753 385.776 380.329 380.201 387.47 378.411L388.689 378.106L387.47 377.801Z" fill="#F5F5F5"/>
<path d="M256.175 215.552C219.372 215.552 189.53 245.392 189.53 282.203C189.53 319.008 219.372 348.85 256.175 348.85C292.994 348.85 322.824 319.008 322.824 282.203C322.825 245.392 292.995 215.552 256.175 215.552Z" fill="#3A506B"/>
<path d="M256.175 159.613C230.541 159.613 209.688 180.468 209.688 206.099V234.466C214.293 229.98 219.542 226.158 225.287 223.146V206.1C225.287 189.07 239.145 175.213 256.176 175.213C273.211 175.213 287.069 189.069 287.069 206.1V223.146C292.814 226.157 298.063 229.979 302.668 234.464V206.1C302.667 180.468 281.813 159.613 256.175 159.613Z" fill="#48ACF0"/>
<path d="M255.996 230C227.282 230 204 253.276 204 282.001C204 310.714 227.282 334 255.996 334C284.723 334 308 310.714 308 282.001C308 253.277 284.723 230 255.996 230Z" fill="#F5F5F5"/>
<path d="M242.673 308.344C241.197 308.344 240 307.148 240 305.674C240 304.198 241.196 303 242.673 303C244.147 303 245.344 304.198 245.344 305.674C245.344 307.149 244.148 308.344 242.673 308.344Z" fill="#48ACF0"/>
<path d="M237.872 317.143C236.849 317.143 236.02 316.311 236.02 315.288C236.02 314.266 236.849 313.437 237.872 313.437C238.895 313.437 239.723 314.265 239.723 315.288C239.723 316.311 238.895 317.143 237.872 317.143Z" fill="#48ACF0"/>
<path d="M230.161 284.621C228.877 285.36 227.236 284.922 226.495 283.638C225.755 282.355 226.194 280.714 227.478 279.973C228.761 279.231 230.402 279.671 231.143 280.955C231.883 282.238 231.443 283.88 230.161 284.621Z" fill="#48ACF0"/>
<path d="M219.65 283.752C218.765 284.263 217.633 283.96 217.121 283.072C216.609 282.187 216.912 281.054 217.799 280.544C218.684 280.032 219.818 280.335 220.329 281.221C220.84 282.106 220.537 283.239 219.65 283.752Z" fill="#48ACF0"/>
<path d="M245.094 259.153C244.353 260.437 242.712 260.875 241.429 260.136C240.145 259.394 239.706 257.752 240.447 256.469C241.189 255.186 242.828 254.747 244.113 255.487C245.396 256.228 245.835 257.87 245.094 259.153Z" fill="#48ACF0"/>
<path d="M239.456 249.921C238.945 250.806 237.813 251.109 236.926 250.598C236.04 250.087 235.737 248.954 236.248 248.067C236.76 247.183 237.892 246.879 238.779 247.389C239.664 247.902 239.968 249.035 239.456 249.921Z" fill="#48ACF0"/>
<path d="M270.951 260.333C269.469 260.333 268.269 259.132 268.269 257.652C268.269 256.169 269.469 254.968 270.951 254.968C272.432 254.968 273.634 256.169 273.634 257.652C273.634 259.132 272.432 260.333 270.951 260.333Z" fill="#48ACF0"/>
<path d="M276.128 250.835C275.105 250.835 274.275 250.007 274.275 248.984C274.275 247.961 275.105 247.132 276.128 247.132C277.151 247.132 277.979 247.961 277.979 248.984C277.979 250.007 277.151 250.835 276.128 250.835Z" fill="#48ACF0"/>
<path d="M286.521 284.298C285.238 285.041 283.597 284.601 282.856 283.317C282.116 282.032 282.555 280.393 283.839 279.651C285.122 278.912 286.762 279.351 287.503 280.634C288.245 281.916 287.805 283.558 286.521 284.298Z" fill="#48ACF0"/>
<path d="M296.2 283.73C295.314 284.241 294.182 283.938 293.67 283.051C293.158 282.164 293.463 281.031 294.347 280.521C295.234 280.009 296.367 280.312 296.878 281.199C297.391 282.086 297.087 283.219 296.2 283.73Z" fill="#48ACF0"/>
<path d="M273.552 307.8C272.811 309.085 271.171 309.524 269.887 308.783C268.604 308.043 268.165 306.402 268.905 305.119C269.646 303.836 271.287 303.397 272.57 304.137C273.854 304.878 274.293 306.518 273.552 307.8Z" fill="#48ACF0"/>
<path d="M277.75 316.204C277.238 317.089 276.106 317.394 275.221 316.881C274.335 316.371 274.032 315.238 274.542 314.352C275.053 313.465 276.186 313.162 277.072 313.674C277.959 314.185 278.261 315.319 277.75 316.204Z" fill="#48ACF0"/>
<path d="M239.769 295.899C238.19 296.809 236.17 296.267 235.259 294.688C234.346 293.108 234.889 291.09 236.467 290.178C238.046 289.266 240.066 289.807 240.978 291.387C241.89 292.966 241.349 294.984 239.769 295.899Z" fill="#48ACF0"/>
<path d="M227.976 301.546C226.878 302.181 225.473 301.804 224.837 300.704C224.203 299.606 224.58 298.201 225.678 297.565C226.778 296.933 228.183 297.307 228.817 298.408C229.453 299.507 229.076 300.911 227.976 301.546Z" fill="#48ACF0"/>
<path d="M240.978 272.887C240.066 274.466 238.046 275.007 236.467 274.095C234.888 273.183 234.345 271.165 235.259 269.583C236.17 268.004 238.19 267.463 239.769 268.376C241.349 269.286 241.89 271.307 240.978 272.887Z" fill="#48ACF0"/>
<path d="M228.817 265.865C228.183 266.963 226.778 267.34 225.678 266.706C224.58 266.071 224.203 264.666 224.837 263.567C225.473 262.467 226.878 262.09 227.976 262.727C229.076 263.361 229.453 264.765 228.817 265.865Z" fill="#48ACF0"/>
<path d="M256.998 263.637C255.176 263.637 253.698 262.156 253.698 260.333C253.698 258.509 255.176 257.032 256.998 257.032C258.823 257.032 260.302 258.509 260.302 260.333C260.302 262.156 258.823 263.637 256.998 263.637Z" fill="#48ACF0"/>
<path d="M256.998 249.595C255.732 249.595 254.702 248.565 254.702 247.296C254.702 246.026 255.732 245 256.998 245C258.269 245 259.297 246.026 259.297 247.296C259.297 248.565 258.269 249.595 256.998 249.595Z" fill="#48ACF0"/>
<path d="M256.998 319.273C255.732 319.273 254.702 318.245 254.702 316.977C254.702 315.708 255.732 314.677 256.998 314.677C258.269 314.677 259.297 315.708 259.297 316.977C259.297 318.245 258.269 319.273 256.998 319.273Z" fill="#48ACF0"/>
<path d="M277.532 274.095C275.953 275.007 273.932 274.466 273.022 272.887C272.109 271.307 272.65 269.286 274.23 268.376C275.81 267.464 277.829 268.004 278.742 269.583C279.653 271.165 279.112 273.183 277.532 274.095Z" fill="#48ACF0"/>
<path d="M288.321 266.706C287.223 267.34 285.817 266.963 285.181 265.865C284.546 264.765 284.923 263.361 286.022 262.727C287.122 262.09 288.528 262.467 289.162 263.567C289.795 264.666 289.419 266.071 288.321 266.706Z" fill="#48ACF0"/>
<path d="M278.742 294.688C277.829 296.267 275.81 296.81 274.23 295.899C272.65 294.985 272.109 292.966 273.022 291.387C273.932 289.807 275.953 289.266 277.532 290.178C279.112 291.09 279.653 293.108 278.742 294.688Z" fill="#48ACF0"/>
<path d="M289.162 300.704C288.528 301.803 287.123 302.18 286.022 301.546C284.923 300.911 284.546 299.507 285.181 298.408C285.817 297.308 287.223 296.933 288.321 297.565C289.419 298.202 289.795 299.606 289.162 300.704Z" fill="#48ACF0"/>
<path d="M255.347 295.372C253.915 297.851 250.742 298.702 248.262 297.268C245.782 295.837 244.931 292.665 246.364 290.184C247.796 287.705 250.968 286.854 253.449 288.287C255.929 289.718 256.779 292.89 255.347 295.372Z" fill="#48ACF0"/>
<path d="M256.998 309C255.342 309 254 307.655 254 305.999C254 304.341 255.342 303 256.998 303C258.656 303 260 304.341 260 305.999C260 307.655 258.656 309 256.998 309Z" fill="#48ACF0"/>
<path d="M244.712 287.323C241.848 287.323 239.526 285 239.526 282.137C239.526 279.273 241.848 276.949 244.712 276.949C247.577 276.949 249.899 279.273 249.899 282.137C249.899 285 247.577 287.323 244.712 287.323Z" fill="#48ACF0"/>
<path d="M253.449 275.986C250.968 277.417 247.796 276.568 246.364 274.087C244.932 271.607 245.782 268.435 248.262 267.002C250.742 265.57 253.915 266.421 255.347 268.901C256.779 271.381 255.929 274.554 253.449 275.986Z" fill="#48ACF0"/>
<path d="M267.634 274.087C266.204 276.568 263.032 277.417 260.55 275.986C258.07 274.554 257.219 271.38 258.652 268.901C260.084 266.421 263.257 265.57 265.737 267.002C268.218 268.435 269.067 271.607 267.634 274.087Z" fill="#48ACF0"/>
<path d="M269.288 287.323C266.423 287.323 264.102 285 264.102 282.137C264.102 279.273 266.423 276.949 269.288 276.949C272.153 276.949 274.475 279.273 274.475 282.137C274.475 285 272.153 287.323 269.288 287.323Z" fill="#48ACF0"/>
<path d="M265.737 297.268C263.257 298.701 260.084 297.851 258.652 295.372C257.22 292.89 258.07 289.718 260.55 288.287C263.032 286.854 266.204 287.705 267.634 290.184C269.067 292.665 268.218 295.837 265.737 297.268Z" fill="#48ACF0"/>
</svg>
