<svg width="512" height="512" viewBox="0 0 512 512" fill="none" xmlns="http://www.w3.org/2000/svg">
<path d="M255.998 40.931C137.225 40.931 40.93 137.221 40.93 255.999C40.93 374.777 137.225 471.07 255.998 471.07C374.781 471.07 471.074 374.777 471.074 255.999C471.074 137.221 374.781 40.931 255.998 40.931Z" fill="#1C2541"/>
<path d="M255.998 1C115.391 1 1 115.394 1 255.999C1 396.605 115.391 511 255.998 511C396.607 511 511 396.605 511 255.999C511 115.394 396.607 1 255.998 1ZM255.998 502.827C119.896 502.827 9.169 392.1 9.169 255.999C9.169 119.898 119.897 9.169 255.998 9.169C392.102 9.169 502.831 119.898 502.831 255.999C502.831 392.101 392.102 502.827 255.998 502.827Z" fill="#1C2541"/>
<path d="M429.667 171.988C421.142 169.849 414.48 163.189 412.343 154.667L411.978 153.21L411.615 154.667C409.478 163.189 402.816 169.85 394.291 171.988L392.834 172.356L394.291 172.72C402.816 174.855 409.478 181.517 411.615 190.041L411.978 191.498L412.343 190.041C414.48 181.517 421.142 174.854 429.667 172.72L431.127 172.356L429.667 171.988Z" fill="#0CD15B"/>
<path d="M106.353 261.339C96.027 258.753 87.959 250.683 85.371 240.359L84.93 238.596L84.491 240.359C81.901 250.683 73.833 258.754 63.509 261.339L61.743 261.78L63.509 262.221C73.833 264.811 81.902 272.877 84.491 283.205L84.93 284.965L85.371 283.205C87.959 272.877 96.027 264.81 106.353 262.221L108.119 261.78L106.353 261.339Z" fill="#48ACF0"/>
<path d="M110.698 207.899C103.935 206.203 98.651 200.92 96.956 194.158L96.667 193.003L96.379 194.158C94.683 200.92 89.399 206.203 82.637 207.899L81.481 208.188L82.637 208.477C89.399 210.173 94.683 215.457 96.379 222.22L96.667 223.372L96.956 222.22C98.65 215.456 103.935 210.173 110.698 208.477L111.855 208.188L110.698 207.899Z" fill="#F5F5F5"/>
<path d="M335.036 374.382C327.26 372.436 321.188 366.365 319.243 358.592L318.911 357.266L318.577 358.592C316.63 366.365 310.561 372.436 302.785 374.382L301.462 374.715L302.785 375.046C310.561 376.992 316.63 383.063 318.577 390.839L318.911 392.161L319.243 390.839C321.188 383.063 327.26 376.992 335.036 375.046L336.359 374.715L335.036 374.382Z" fill="#5D8EF9"/>
<path d="M291.14 397.458C277.605 394.067 267.037 383.5 263.644 369.967L263.068 367.658L262.484 369.967C259.095 383.5 248.531 394.068 234.998 397.458L232.691 398.038L234.998 398.618C248.531 402.003 259.096 412.569 262.484 426.108L263.068 428.416L263.644 426.108C267.037 412.569 277.605 402.003 291.14 398.618L293.45 398.038L291.14 397.458Z" fill="#0CD15B"/>
<path d="M357.676 153.702H154.328C141.456 153.702 131.021 164.137 131.021 177.003V323.199H380.979V177.003C380.979 164.137 370.546 153.702 357.676 153.702Z" fill="#0B132B"/>
<path d="M104.669 322.794V333.165C104.669 341.82 111.689 348.84 120.348 348.84H391.656C400.314 348.84 407.331 341.82 407.331 333.165V322.794H104.669Z" fill="#0B132B"/>
<path d="M362.448 177.003H149.552V323.199H362.448V177.003Z" fill="#1C2541"/>
<path d="M332.651 276.884L318.446 261.521H289.848C288.864 259.926 287.105 258.86 285.094 258.86C282.009 258.86 279.51 261.36 279.51 264.442C279.51 267.53 282.009 270.03 285.094 270.03C287.107 270.03 288.867 268.962 289.85 267.363H315.89L330.095 282.726H362.447V276.884H332.651V276.884Z" fill="white"/>
<path d="M233.057 276.061C231.155 276.061 229.252 275.831 227.35 275.371C225.448 274.91 223.873 274.088 222.627 272.905C219.741 274.943 216.1 275.963 211.705 275.963C208.425 275.963 205.407 275.469 202.652 274.483C199.963 273.431 197.634 271.885 195.666 269.847C193.764 267.808 192.255 265.31 191.14 262.35C190.09 259.325 189.565 255.84 189.565 251.895C189.565 248.541 190.09 245.417 191.14 242.524C192.255 239.63 193.862 237.132 195.961 235.027C198.06 232.857 200.619 231.147 203.636 229.898C206.719 228.649 210.196 228.024 214.066 228.024C217.937 228.024 221.348 228.385 224.3 229.109C227.317 229.766 229.81 230.457 231.778 231.18V262.153C231.778 263.666 232.073 264.685 232.664 265.211C233.32 265.737 234.238 266 235.419 266C236.468 266 237.485 265.704 238.469 265.112C239.519 264.52 240.404 263.468 241.126 261.956C241.847 260.378 242.438 258.273 242.897 255.643C243.356 252.947 243.586 249.56 243.586 245.483C243.586 241.406 242.864 237.69 241.421 234.337C240.043 230.917 238.01 228.024 235.32 225.656C232.696 223.223 229.449 221.349 225.579 220.034C221.774 218.653 217.445 217.963 212.59 217.963C207.933 217.963 203.636 218.752 199.7 220.33C195.83 221.908 192.452 224.177 189.565 227.136C186.744 230.029 184.514 233.581 182.874 237.789C181.3 241.998 180.513 246.732 180.513 251.993C180.513 257.451 181.3 262.252 182.874 266.395C184.449 270.472 186.679 273.891 189.565 276.653C192.517 279.415 196.059 281.486 200.192 282.867C204.391 284.314 209.114 285.037 214.362 285.037C217.642 285.037 220.725 284.807 223.611 284.347C226.563 283.952 229.023 283.558 230.991 283.163L232.467 292.435C230.827 292.961 228.334 293.52 224.989 294.112C221.643 294.704 218.101 295 214.362 295C208.064 295 202.16 294.178 196.65 292.534C191.14 290.89 186.318 288.325 182.185 284.84C178.118 281.355 174.904 276.916 172.542 271.524C170.181 266.066 169 259.556 169 251.993C169 244.694 170.246 238.315 172.739 232.857C175.232 227.333 178.512 222.73 182.579 219.048C186.646 215.365 191.271 212.603 196.453 210.762C201.701 208.921 207.08 208 212.59 208C218.625 208 224.234 208.855 229.416 210.565C234.599 212.209 239.06 214.642 242.799 217.864C246.603 221.086 249.588 225.098 251.753 229.898C253.918 234.633 255 240.091 255 246.272C255 251.073 254.475 255.347 253.426 259.095C252.442 262.778 250.966 265.868 248.998 268.367C247.095 270.866 244.799 272.773 242.11 274.088C239.42 275.404 236.403 276.061 233.057 276.061ZM219.183 264.323C219.052 263.797 218.953 263.041 218.888 262.054C218.822 261.002 218.789 260.016 218.789 259.095V238.973C217.478 238.71 216.1 238.578 214.657 238.578C212.492 238.578 210.655 238.94 209.146 239.663C207.638 240.321 206.424 241.241 205.506 242.425C204.587 243.609 203.899 245.023 203.439 246.667C203.046 248.245 202.849 249.988 202.849 251.895C202.849 253.802 203.013 255.577 203.341 257.221C203.669 258.799 204.227 260.18 205.014 261.364C205.867 262.548 206.982 263.501 208.359 264.224C209.737 264.882 211.442 265.211 213.476 265.211C214.657 265.211 215.772 265.145 216.822 265.014C217.871 264.816 218.658 264.586 219.183 264.323Z" fill="#0CD15B"/>
<path d="M316.604 202.986L297.163 194.513H284.735C283.752 192.912 281.992 191.842 279.978 191.842C276.894 191.842 274.394 194.344 274.394 197.434C274.394 200.512 276.894 203.014 279.978 203.014C281.988 203.014 283.746 201.948 284.73 200.355H295.945L315.386 208.828H362.448V202.986H316.604V202.986Z" fill="white"/>
<path d="M325.77 220.266L320.196 231.498H310.916C309.933 229.904 308.175 228.839 306.165 228.839C303.081 228.839 300.581 231.337 300.581 234.419C300.581 237.507 303.081 240.007 306.165 240.007C308.177 240.007 309.936 238.939 310.919 237.34H323.818L329.392 226.108H362.448V220.266H325.77Z" fill="white"/>
<path d="M322.508 291.827L306.447 302.22H281.034C280.05 300.626 278.292 299.559 276.281 299.559C273.196 299.559 270.697 302.061 270.697 305.141C270.697 308.231 273.196 310.731 276.281 310.731C278.295 310.731 280.054 309.662 281.037 308.062H308.17L324.231 297.669H362.447V291.827H322.508Z" fill="white"/>
<path d="M326.625 247.48C325.642 245.887 323.885 244.821 321.874 244.821C318.79 244.821 316.29 247.321 316.29 250.401C316.29 253.491 318.79 255.985 321.874 255.985C323.887 255.985 325.645 254.919 326.628 253.322H362.448V247.48H326.625Z" fill="white"/>
</svg>
