<svg width="512" height="512" viewBox="0 0 512 512" fill="none" xmlns="http://www.w3.org/2000/svg">
<path d="M255.998 40.931C137.225 40.931 40.93 137.221 40.93 255.999C40.93 374.777 137.225 471.07 255.998 471.07C374.781 471.07 471.074 374.777 471.074 255.999C471.074 137.221 374.781 40.931 255.998 40.931Z" fill="#1C2541"/>
<path d="M255.998 1C115.391 1 1 115.394 1 255.999C1 396.605 115.391 511 255.998 511C396.607 511 511 396.605 511 255.999C511 115.394 396.607 1 255.998 1ZM255.998 502.827C119.896 502.827 9.169 392.1 9.169 255.999C9.169 119.898 119.897 9.169 255.998 9.169C392.102 9.169 502.831 119.898 502.831 255.999C502.831 392.101 392.102 502.827 255.998 502.827Z" fill="#1C2541"/>
<path d="M429.667 171.988C421.142 169.849 414.48 163.189 412.343 154.667L411.978 153.21L411.615 154.667C409.478 163.189 402.816 169.85 394.291 171.988L392.834 172.356L394.291 172.72C402.816 174.855 409.478 181.517 411.615 190.041L411.978 191.498L412.343 190.041C414.48 181.517 421.142 174.854 429.667 172.72L431.127 172.356L429.667 171.988Z" fill="#0CD15B"/>
<path d="M106.353 261.339C96.027 258.753 87.959 250.683 85.371 240.359L84.93 238.596L84.491 240.359C81.901 250.683 73.833 258.754 63.509 261.339L61.743 261.78L63.509 262.221C73.833 264.811 81.902 272.877 84.491 283.205L84.93 284.965L85.371 283.205C87.959 272.877 96.027 264.81 106.353 262.221L108.119 261.78L106.353 261.339Z" fill="#48ACF0"/>
<path d="M110.698 207.899C103.935 206.203 98.651 200.92 96.956 194.158L96.667 193.003L96.379 194.158C94.683 200.92 89.399 206.203 82.637 207.899L81.481 208.188L82.637 208.477C89.399 210.173 94.683 215.457 96.379 222.22L96.667 223.372L96.956 222.22C98.65 215.456 103.935 210.173 110.698 208.477L111.855 208.188L110.698 207.899Z" fill="#F5F5F5"/>
<path d="M335.036 374.382C327.26 372.436 321.188 366.365 319.243 358.592L318.911 357.266L318.577 358.592C316.63 366.365 310.561 372.436 302.785 374.382L301.462 374.715L302.785 375.046C310.561 376.992 316.63 383.063 318.577 390.839L318.911 392.161L319.243 390.839C321.188 383.063 327.26 376.992 335.036 375.046L336.359 374.715L335.036 374.382Z" fill="#5D8EF9"/>
<path d="M291.14 397.458C277.605 394.067 267.037 383.5 263.644 369.967L263.068 367.658L262.484 369.967C259.095 383.5 248.531 394.068 234.998 397.458L232.691 398.038L234.998 398.618C248.531 402.003 259.096 412.569 262.484 426.108L263.068 428.416L263.644 426.108C267.037 412.569 277.605 402.003 291.14 398.618L293.45 398.038L291.14 397.458Z" fill="#0CD15B"/>
<path d="M357.676 153.702H154.328C141.456 153.702 131.021 164.137 131.021 177.003V323.199H380.979V177.003C380.979 164.137 370.546 153.702 357.676 153.702Z" fill="#0B132B"/>
<path d="M104.669 322.794V333.165C104.669 341.82 111.689 348.84 120.348 348.84H391.656C400.314 348.84 407.331 341.82 407.331 333.165V322.794H104.669Z" fill="#0B132B"/>
<path d="M362.448 177.003H149.552V323.199H362.448V177.003Z" fill="#1C2541"/>
<path d="M332.651 276.884L318.446 261.521H289.848C288.864 259.926 287.105 258.86 285.094 258.86C282.009 258.86 279.51 261.36 279.51 264.442C279.51 267.53 282.009 270.03 285.094 270.03C287.107 270.03 288.867 268.962 289.85 267.363H315.89L330.095 282.726H362.447V276.884H332.651Z" fill="white"/>
<path d="M200.116 203.906C200.116 202.012 201.668 200.241 204.772 198.594C207.875 196.865 211.959 196 217.023 196C220.944 196 223.476 196.824 224.619 198.471C225.436 199.624 225.844 200.694 225.844 201.682V205.388C235.074 206.376 241.486 208.106 245.079 210.576C246.55 211.565 247.285 212.512 247.285 213.418C247.285 217.7 246.264 222.312 244.222 227.253C242.262 232.194 240.342 234.665 238.464 234.665C238.137 234.665 237.075 234.294 235.278 233.553C229.887 231.165 225.395 229.971 221.801 229.971C218.289 229.971 215.88 230.3 214.573 230.959C213.348 231.618 212.735 232.647 212.735 234.047C212.735 235.365 213.634 236.394 215.43 237.135C217.227 237.876 219.433 238.535 222.046 239.112C224.742 239.606 227.641 240.471 230.745 241.706C233.93 242.941 236.871 244.424 239.566 246.153C242.262 247.882 244.508 250.476 246.305 253.935C248.102 257.312 249 260.771 249 264.312C249 267.853 248.673 270.776 248.02 273.082C247.366 275.388 246.223 277.776 244.589 280.247C243.038 282.718 240.628 284.941 237.361 286.918C234.176 288.812 230.337 290.212 225.844 291.118V293.094C225.844 294.988 224.292 296.759 221.189 298.406C218.085 300.135 214.001 301 208.937 301C205.017 301 202.485 300.176 201.341 298.529C200.524 297.376 200.116 296.306 200.116 295.318V291.612C194.807 291.118 190.192 290.335 186.272 289.265C178.757 287.206 175 284.982 175 282.594C175 277.982 175.653 273.206 176.96 268.265C178.267 263.241 179.819 260.729 181.616 260.729C181.943 260.729 185.332 261.841 191.785 264.065C198.237 266.288 203.097 267.4 206.364 267.4C209.631 267.4 211.755 267.071 212.735 266.412C213.715 265.671 214.205 264.641 214.205 263.324C214.205 262.006 213.307 260.894 211.51 259.988C209.713 259 207.467 258.218 204.772 257.641C202.076 257.065 199.136 256.159 195.95 254.924C192.847 253.688 189.947 252.247 187.252 250.6C184.556 248.953 182.31 246.524 180.513 243.312C178.716 240.1 177.818 236.353 177.818 232.071C177.818 216.918 185.251 208.065 200.116 205.512V203.906Z" fill="#0CD15B"/>
<path d="M316.604 202.986L297.163 194.513H284.735C283.752 192.912 281.992 191.842 279.978 191.842C276.894 191.842 274.394 194.344 274.394 197.434C274.394 200.512 276.894 203.014 279.978 203.014C281.988 203.014 283.746 201.948 284.73 200.355H295.945L315.386 208.828H362.448V202.986H316.604Z" fill="white"/>
<path d="M325.77 220.266L320.196 231.498H310.916C309.933 229.904 308.175 228.839 306.165 228.839C303.081 228.839 300.581 231.337 300.581 234.419C300.581 237.507 303.081 240.007 306.165 240.007C308.177 240.007 309.936 238.939 310.919 237.34H323.818L329.392 226.108H362.448V220.266H325.77Z" fill="white"/>
<path d="M322.508 291.827L306.447 302.22H281.034C280.05 300.626 278.292 299.559 276.281 299.559C273.196 299.559 270.697 302.061 270.697 305.141C270.697 308.231 273.196 310.731 276.281 310.731C278.295 310.731 280.054 309.662 281.037 308.062H308.17L324.231 297.669H362.447V291.827H322.508Z" fill="white"/>
<path d="M326.625 247.48C325.642 245.887 323.885 244.821 321.874 244.821C318.79 244.821 316.29 247.321 316.29 250.401C316.29 253.491 318.79 255.985 321.874 255.985C323.887 255.985 325.645 254.919 326.628 253.322H362.448V247.48H326.625Z" fill="white"/>
</svg>
